<svg width="81" height="60" viewBox="0 0 81 60" fill="none" xmlns="http://www.w3.org/2000/svg">
<path d="M26.424 59.5421C17.5256 59.5421 8.8927 57.292 1.72083 52.91C0.525513 52.1995 0.127075 50.8967 0.525513 49.7124C1.05676 48.5281 2.38489 47.8175 3.71301 48.0544C4.77551 48.1728 5.83801 48.2913 6.90051 48.2913C10.7521 48.2913 14.4709 47.5807 17.924 46.2779C13.674 44.3831 10.2208 41.067 8.75989 36.8035C8.49426 35.9745 8.62708 35.1455 9.15833 34.4349C5.43957 31.3557 3.31458 27.0922 3.31458 22.4734V22.355C3.31458 21.4076 3.84583 20.5786 4.77551 20.1048C4.90833 19.9864 5.04114 19.9864 5.17395 19.868C3.97864 17.7362 3.31458 15.2492 3.31458 12.8806C3.31458 9.91983 4.11145 7.19594 5.7052 4.82733C6.23645 4.11675 7.03333 3.64303 8.09583 3.5246C9.02551 3.40616 10.088 3.87989 10.6193 4.47204C16.9943 11.4594 26.1584 15.9598 35.9865 17.1441V17.0257C35.9865 8.14338 44.0881 0.919128 54.049 0.919128C58.4318 0.919128 62.549 2.34029 65.8693 4.94576C67.3303 4.47204 68.924 3.5246 70.5178 2.69558C71.3146 2.22186 72.1115 1.74814 72.9084 1.39285C73.8381 0.919129 75.0334 0.919128 76.0959 1.51128C77.1584 2.10343 77.5568 3.05087 77.424 3.99832C77.2912 4.7089 77.0256 6.36692 76.4943 8.14338C76.7599 8.14338 76.8928 8.14338 77.0256 8.14338C78.2209 7.90652 79.4162 8.38024 80.0803 9.32768C80.7443 10.2751 80.7443 11.341 80.0803 12.2884C78.2209 14.7755 75.4318 16.4335 72.9084 17.9731C72.6428 18.0915 72.3771 18.3284 72.2443 18.4468C72.2443 18.5652 72.2443 18.6837 72.2443 18.8021C72.3771 38.6984 55.1115 59.5421 26.424 59.5421ZM15.0021 52.6732C18.5881 53.6206 22.4396 54.0943 26.424 54.0943C51.3927 54.0943 66.4006 35.9745 66.4006 18.4468C66.4006 17.9731 66.4006 17.4994 66.4006 17.0257C66.2678 16.0782 66.6662 15.1308 67.5959 14.5386C68.2599 14.0649 69.0568 13.5912 69.7209 13.1175C70.1193 12.8806 70.5178 12.6437 70.9162 12.4069C70.2521 12.17 69.7209 11.5779 69.4553 10.9857C69.1896 10.3936 69.1896 9.68297 69.4553 9.09082C68.2599 9.56454 67.0646 9.91983 65.8693 10.1567C64.9396 10.2751 63.8771 10.0383 63.2131 9.32768C60.8224 7.07751 57.7678 5.8932 54.4474 5.8932C47.8068 5.8932 42.3615 10.7488 42.3615 16.6704C42.3615 17.3809 42.4943 18.21 42.6271 19.1574C42.7599 19.9864 42.6271 20.8154 41.9631 21.4076C41.299 21.9997 40.5021 22.355 39.5724 22.355C28.2834 21.8813 17.6584 17.7362 9.68958 10.7488C9.55676 11.341 9.55676 11.9331 9.55676 12.5253C9.55676 16.1966 11.549 19.5127 15.0021 21.526C16.0646 22.2366 16.5959 23.4209 16.1974 24.6052C15.799 25.7895 14.6037 26.5001 13.2756 26.5001C12.3459 26.5001 11.2834 26.3816 10.3536 26.1448C11.8146 29.4608 15.1349 32.0663 19.2521 32.7769C20.5803 33.0137 21.6428 34.0796 21.6428 35.3823C21.6428 36.6851 20.7131 37.751 19.3849 37.9878C18.5881 38.2247 17.6584 38.3431 16.9943 38.4615C19.2521 40.8301 22.4396 42.2513 26.0256 42.2513C27.3537 42.2513 28.4162 42.9619 28.8146 44.0278C29.2131 45.0936 28.8146 46.2779 27.7521 46.9885C23.6349 49.8308 19.5178 51.7257 15.0021 52.6732Z" fill="white"/>
</svg>
