<svg width="83" height="94" viewBox="0 0 83 94" fill="none" xmlns="http://www.w3.org/2000/svg">
<path d="M12.3999 0H49.5215C63.5961 0 75.0205 11.8097 75.1468 26.428V26.4403C75.1475 26.5094 75.1478 26.5909 75.1478 26.6726C75.1478 41.4036 63.6745 53.3455 49.5216 53.3455H28.5278L23.8159 86.041H0L12.3999 0ZM71.0136 26.4792C70.8738 14.2221 61.312 4.33777 49.524 4.30197H15.9626L4.80293 81.7392H20.2529L24.9649 49.0436H49.5215C61.3917 49.0436 71.0144 39.0279 71.0144 26.6729C71.0144 26.6048 71.0141 26.5368 71.0135 26.4689V26.4794L71.0136 26.4792ZM41.2996 94H17.5044L18.9345 83.3739L23.0263 83.9805L22.2452 89.7022H37.716L40.6506 69.2673H57.3738C69.2266 69.2186 78.8223 59.2295 78.8667 46.8968V46.8922V46.8154C78.8667 40.1794 76.0627 34.2249 71.6204 30.1658L71.5962 30.1442L74.3159 26.9047C79.6505 31.7781 83 38.8897 83 46.8154V46.8962V46.8921C82.9508 61.6026 71.5069 73.5138 57.3785 73.5649H44.2302L41.2996 94Z" fill="rgb(237, 233, 227)"/>
</svg>
