<svg width="41" height="69" viewBox="0 0 41 69" fill="none" xmlns="http://www.w3.org/2000/svg">
<path d="M25.2874 68.458H16.1467C13.803 68.458 11.928 66.6326 11.928 64.3777V38.822H4.42798C2.08423 38.822 0.209229 36.9966 0.209229 34.7417V27.3327C0.209229 25.0778 2.08423 23.2524 4.42798 23.2524H11.6936V16.4877C11.6936 6.71636 18.0217 0.166382 27.3967 0.166382H34.428C36.7717 0.166382 38.6467 1.99179 38.6467 4.24671V12.9442C38.6467 15.1991 36.7717 17.0245 34.428 17.0245H29.6233C29.5061 17.0245 29.5061 17.0245 29.3889 17.0245C29.3889 17.1319 29.3889 17.2393 29.3889 17.3467V23.145H36.0686C37.4749 23.2524 38.6467 23.7893 39.467 24.6483C40.2874 25.6147 40.6389 26.9032 40.4045 28.0844L38.9983 35.386C38.7639 37.3188 37.0061 38.7147 34.7795 38.7147H29.3889V64.3777C29.3889 66.5253 27.5139 68.458 25.2874 68.458ZM13.9202 35.0639C15.092 35.0639 16.0295 35.9229 16.0295 36.9966V64.3777C16.0295 64.5925 16.1467 64.6999 16.1467 64.6999H25.2874C25.2874 64.6999 25.4045 64.5925 25.4045 64.3777V36.7819C25.4045 35.7081 26.342 34.8491 27.5139 34.8491H34.8967C34.8967 34.8491 35.0139 34.8491 35.0139 34.7417V34.6343L36.4202 27.4401C36.4202 27.2253 36.4202 27.118 36.303 27.0106C36.303 27.0106 36.1858 26.9032 36.0686 26.9032H27.3967C26.2249 26.9032 25.2874 26.0442 25.2874 24.9704V17.3467C25.2874 15.4139 25.6389 13.2664 29.6233 13.2664H34.428C34.428 13.2664 34.5452 13.159 34.5452 12.9442V4.35408C34.5452 4.13933 34.428 4.03195 34.428 4.03195H27.5139C20.4827 4.03195 15.9124 8.97129 15.9124 16.595V25.2926C15.9124 26.3663 14.9749 27.2253 13.803 27.2253H4.42798C4.42798 27.2253 4.31079 27.3327 4.31079 27.5475V34.9565C4.31079 35.1712 4.42798 35.2786 4.42798 35.2786L13.9202 35.0639Z" fill="white"/>
</svg>
