<svg width="73" height="67" viewBox="0 0 73 67" fill="none" xmlns="http://www.w3.org/2000/svg">
<path d="M26.75 63.6372H46.25C62.5 63.6372 69 57.6083 69 42.5361V24.4494C69 9.37711 62.5 3.34821 46.25 3.34821H26.75C10.5 3.34821 4 9.37711 4 24.4494V42.5361C4 57.6083 10.5 63.6372 26.75 63.6372Z" stroke="white" stroke-width="6.34923" stroke-linecap="round" stroke-linejoin="round"/>
<path d="M36.5 44.0432C42.7822 44.0432 47.875 39.3196 47.875 33.4927C47.875 27.6657 42.7822 22.9421 36.5 22.9421C30.2178 22.9421 25.125 27.6657 25.125 33.4927C25.125 39.3196 30.2178 44.0432 36.5 44.0432Z" stroke="white" stroke-width="6.34923" stroke-linecap="round" stroke-linejoin="round"/>
<path d="M54.8174 18.4204H54.8551" stroke="white" stroke-width="8.46564" stroke-linecap="round" stroke-linejoin="round"/>
</svg>
