<svg width="102" height="66" viewBox="0 0 102 66" fill="none" xmlns="http://www.w3.org/2000/svg">
<path d="M27.9999 44.9998C30.5404 44.9998 32.5999 43.209 32.5999 40.9998C32.5999 38.7906 30.5404 36.9998 27.9999 36.9998C25.4594 36.9998 23.3999 38.7906 23.3999 40.9998C23.3999 43.209 25.4594 44.9998 27.9999 44.9998Z" fill="rgb(237, 233, 227)" stroke="rgb(237, 233, 227)" stroke-width="9" stroke-linecap="round" stroke-linejoin="round"/>
<path d="M5 21V7.4C5 6.07452 6.2357 5 7.76 5H94.24C95.7644 5 97 6.07452 97 7.4V21M5 21V58.6C5 59.9256 6.2357 61 7.76 61H94.24C95.7644 61 97 59.9256 97 58.6V21M5 21H97" stroke="rgb(237, 233, 227)" stroke-width="9" stroke-linecap="round" stroke-linejoin="round"/>
</svg>
